<mxfile host="65bd71144e">
    <diagram id="bI2Ev9v69Rt3Gl_keq7L" name="ページ1">
        <mxGraphModel dx="5631" dy="3724" grid="1" gridSize="10" guides="1" tooltips="1" connect="1" arrows="1" fold="1" page="1" pageScale="1" pageWidth="827" pageHeight="1169" math="0" shadow="0">
            <root>
                <mxCell id="0"/>
                <mxCell id="1" parent="0"/>
                <mxCell id="3" value="StopManager" style="shape=process;whiteSpace=wrap;html=1;backgroundOutline=1;" vertex="1" parent="1">
                    <mxGeometry x="600" y="800" width="200" height="240" as="geometry"/>
                </mxCell>
                <mxCell id="7" value="" style="edgeStyle=none;orthogonalLoop=1;jettySize=auto;html=1;endArrow=diamondThin;endFill=0;endSize=12;entryX=-0.005;entryY=0.168;entryDx=0;entryDy=0;entryPerimeter=0;" edge="1" parent="1" target="3">
                    <mxGeometry width="100" relative="1" as="geometry">
                        <mxPoint x="-80" y="840" as="sourcePoint"/>
                        <mxPoint x="560" y="840" as="targetPoint"/>
                        <Array as="points"/>
                    </mxGeometry>
                </mxCell>
                <mxCell id="8" value="" style="edgeStyle=none;orthogonalLoop=1;jettySize=auto;html=1;entryX=-0.009;entryY=0.672;entryDx=0;entryDy=0;entryPerimeter=0;" edge="1" parent="1" target="3">
                    <mxGeometry width="100" relative="1" as="geometry">
                        <mxPoint x="-80" y="960" as="sourcePoint"/>
                        <mxPoint x="580" y="960" as="targetPoint"/>
                        <Array as="points"/>
                    </mxGeometry>
                </mxCell>
                <mxCell id="21" value="" style="edgeStyle=none;orthogonalLoop=1;jettySize=auto;html=1;endArrow=diamondThin;endFill=0;endSize=12;entryX=1;entryY=0.5;entryDx=0;entryDy=0;" edge="1" parent="1" source="37" target="35">
                    <mxGeometry width="100" relative="1" as="geometry">
                        <mxPoint x="361" y="1300" as="sourcePoint"/>
                        <mxPoint x="120" y="1160" as="targetPoint"/>
                        <Array as="points">
                            <mxPoint x="359" y="1240"/>
                            <mxPoint x="359" y="1160"/>
                            <mxPoint x="120" y="1160"/>
                        </Array>
                    </mxGeometry>
                </mxCell>
                <mxCell id="35" value="snapshot" style="shape=offPageConnector;whiteSpace=wrap;html=1;direction=north;" vertex="1" parent="1">
                    <mxGeometry x="80" y="1200" width="80" height="80" as="geometry"/>
                </mxCell>
                <mxCell id="36" value="" style="edgeStyle=none;orthogonalLoop=1;jettySize=auto;html=1;" edge="1" parent="1" target="35">
                    <mxGeometry width="100" relative="1" as="geometry">
                        <mxPoint x="-70" y="1239.41" as="sourcePoint"/>
                        <mxPoint x="30" y="1239.41" as="targetPoint"/>
                        <Array as="points"/>
                    </mxGeometry>
                </mxCell>
                <mxCell id="37" value="hold&lt;br&gt;0" style="rounded=1;whiteSpace=wrap;html=1;" vertex="1" parent="1">
                    <mxGeometry x="199" y="1210" width="120" height="60" as="geometry"/>
                </mxCell>
                <mxCell id="38" value="" style="edgeStyle=none;orthogonalLoop=1;jettySize=auto;html=1;" edge="1" parent="1" source="35" target="37">
                    <mxGeometry width="100" relative="1" as="geometry">
                        <mxPoint x="-230" y="1240" as="sourcePoint"/>
                        <mxPoint x="-130" y="1240" as="targetPoint"/>
                        <Array as="points"/>
                    </mxGeometry>
                </mxCell>
                <mxCell id="39" value="" style="edgeStyle=none;orthogonalLoop=1;jettySize=auto;html=1;" edge="1" parent="1" target="40">
                    <mxGeometry width="100" relative="1" as="geometry">
                        <mxPoint x="-70" y="1239.57" as="sourcePoint"/>
                        <mxPoint x="359" y="1080" as="targetPoint"/>
                        <Array as="points">
                            <mxPoint x="39" y="1240"/>
                            <mxPoint x="39" y="1080"/>
                        </Array>
                    </mxGeometry>
                </mxCell>
                <mxCell id="40" value="== 0" style="rhombus;whiteSpace=wrap;html=1;" vertex="1" parent="1">
                    <mxGeometry x="318" y="1040" width="80" height="80" as="geometry"/>
                </mxCell>
                <mxCell id="41" value="" style="edgeStyle=none;orthogonalLoop=1;jettySize=auto;html=1;endArrow=diamondThin;endFill=0;endSize=12;" edge="1" parent="1" target="40">
                    <mxGeometry width="100" relative="1" as="geometry">
                        <mxPoint x="359" y="1200" as="sourcePoint"/>
                        <mxPoint x="113" y="1340" as="targetPoint"/>
                        <Array as="points"/>
                    </mxGeometry>
                </mxCell>
                <mxCell id="42" value="" style="edgeStyle=none;orthogonalLoop=1;jettySize=auto;html=1;" edge="1" parent="1" source="40" target="62">
                    <mxGeometry width="100" relative="1" as="geometry">
                        <mxPoint x="529" y="1024.57" as="sourcePoint"/>
                        <mxPoint x="880" y="1080" as="targetPoint"/>
                        <Array as="points"/>
                    </mxGeometry>
                </mxCell>
                <mxCell id="44" value="true" style="text;html=1;align=center;verticalAlign=middle;resizable=0;points=[];autosize=1;strokeColor=none;fillColor=none;" vertex="1" parent="1">
                    <mxGeometry x="389" y="1085" width="40" height="30" as="geometry"/>
                </mxCell>
                <mxCell id="45" value="false" style="text;html=1;align=center;verticalAlign=middle;resizable=0;points=[];autosize=1;strokeColor=none;fillColor=none;" vertex="1" parent="1">
                    <mxGeometry x="389" y="1000" width="50" height="30" as="geometry"/>
                </mxCell>
                <mxCell id="46" value="" style="edgeStyle=none;orthogonalLoop=1;jettySize=auto;html=1;" edge="1" parent="1" source="40">
                    <mxGeometry width="100" relative="1" as="geometry">
                        <mxPoint x="389" y="1024.57" as="sourcePoint"/>
                        <mxPoint x="600" y="1000" as="targetPoint"/>
                        <Array as="points">
                            <mxPoint x="359" y="1000"/>
                        </Array>
                    </mxGeometry>
                </mxCell>
                <mxCell id="48" value="s_tick" style="text;html=1;align=center;verticalAlign=middle;resizable=0;points=[];autosize=1;strokeColor=none;fillColor=none;" vertex="1" parent="1">
                    <mxGeometry x="-130" y="1220" width="50" height="30" as="geometry"/>
                </mxCell>
                <mxCell id="49" value="s_updateStopStateTick" style="text;html=1;align=center;verticalAlign=middle;resizable=0;points=[];autosize=1;strokeColor=none;fillColor=none;" vertex="1" parent="1">
                    <mxGeometry x="429" y="1000" width="150" height="30" as="geometry"/>
                </mxCell>
                <mxCell id="50" value="s_runLMTick" style="text;html=1;align=center;verticalAlign=middle;resizable=0;points=[];autosize=1;strokeColor=none;fillColor=none;" vertex="1" parent="1">
                    <mxGeometry x="429" y="1085" width="90" height="30" as="geometry"/>
                </mxCell>
                <mxCell id="51" value="c_count" style="text;html=1;align=center;verticalAlign=middle;resizable=0;points=[];autosize=1;strokeColor=none;fillColor=none;" vertex="1" parent="1">
                    <mxGeometry x="328" y="1240" width="70" height="30" as="geometry"/>
                </mxCell>
                <mxCell id="52" value="c_mustStopFromLC" style="text;html=1;align=center;verticalAlign=middle;resizable=0;points=[];autosize=1;strokeColor=none;fillColor=none;" vertex="1" parent="1">
                    <mxGeometry x="-220" y="825" width="130" height="30" as="geometry"/>
                </mxCell>
                <mxCell id="53" value="" style="edgeStyle=none;orthogonalLoop=1;jettySize=auto;html=1;endArrow=diamondThin;endFill=0;endSize=12;entryX=-0.013;entryY=0.335;entryDx=0;entryDy=0;entryPerimeter=0;" edge="1" parent="1" target="3">
                    <mxGeometry width="100" relative="1" as="geometry">
                        <mxPoint x="-80" y="880" as="sourcePoint"/>
                        <mxPoint x="560" y="880" as="targetPoint"/>
                        <Array as="points"/>
                    </mxGeometry>
                </mxCell>
                <mxCell id="54" value="c_mustStopFromGBA" style="text;html=1;align=center;verticalAlign=middle;resizable=0;points=[];autosize=1;strokeColor=none;fillColor=none;" vertex="1" parent="1">
                    <mxGeometry x="-225" y="870" width="140" height="30" as="geometry"/>
                </mxCell>
                <mxCell id="55" value="" style="edgeStyle=none;orthogonalLoop=1;jettySize=auto;html=1;entryX=0;entryY=0.5;entryDx=0;entryDy=0;" edge="1" parent="1" target="3">
                    <mxGeometry width="100" relative="1" as="geometry">
                        <mxPoint x="-80" y="920" as="sourcePoint"/>
                        <mxPoint x="560" y="920" as="targetPoint"/>
                        <Array as="points"/>
                    </mxGeometry>
                </mxCell>
                <mxCell id="56" value="s_requestDontStop" style="text;html=1;align=center;verticalAlign=middle;resizable=0;points=[];autosize=1;strokeColor=none;fillColor=none;" vertex="1" parent="1">
                    <mxGeometry x="-220" y="905" width="130" height="30" as="geometry"/>
                </mxCell>
                <mxCell id="57" value="s_unRequestDontStop" style="text;html=1;align=center;verticalAlign=middle;resizable=0;points=[];autosize=1;strokeColor=none;fillColor=none;" vertex="1" parent="1">
                    <mxGeometry x="-230" y="950" width="140" height="30" as="geometry"/>
                </mxCell>
                <mxCell id="58" value="s_emptyQueue" style="text;html=1;align=center;verticalAlign=middle;resizable=0;points=[];autosize=1;strokeColor=none;fillColor=none;" vertex="1" parent="1">
                    <mxGeometry x="790" y="970" width="100" height="30" as="geometry"/>
                </mxCell>
                <mxCell id="59" value="" style="edgeStyle=none;orthogonalLoop=1;jettySize=auto;html=1;endArrow=diamondThin;endFill=0;endSize=12;exitX=1.01;exitY=0.163;exitDx=0;exitDy=0;exitPerimeter=0;jumpStyle=arc;" edge="1" parent="1" source="3" target="75">
                    <mxGeometry width="100" relative="1" as="geometry">
                        <mxPoint x="830" y="860" as="sourcePoint"/>
                        <mxPoint x="900" y="964.58" as="targetPoint"/>
                        <Array as="points">
                            <mxPoint x="940" y="840"/>
                        </Array>
                    </mxGeometry>
                </mxCell>
                <mxCell id="60" value="" style="edgeStyle=none;orthogonalLoop=1;jettySize=auto;html=1;exitX=0.997;exitY=0.831;exitDx=0;exitDy=0;entryX=-0.006;entryY=0.314;entryDx=0;entryDy=0;entryPerimeter=0;exitPerimeter=0;" edge="1" parent="1" source="64" target="79">
                    <mxGeometry width="100" relative="1" as="geometry">
                        <mxPoint x="1410" y="1080" as="sourcePoint"/>
                        <mxPoint x="40" y="1560" as="targetPoint"/>
                        <Array as="points">
                            <mxPoint x="1480" y="1200"/>
                            <mxPoint x="1480" y="1440"/>
                            <mxPoint x="40" y="1440"/>
                            <mxPoint x="40" y="1520"/>
                        </Array>
                    </mxGeometry>
                </mxCell>
                <mxCell id="61" value="c_isLMStopped" style="text;html=1;align=center;verticalAlign=middle;resizable=0;points=[];autosize=1;strokeColor=none;fillColor=none;" vertex="1" parent="1">
                    <mxGeometry x="800" y="810" width="110" height="30" as="geometry"/>
                </mxCell>
                <mxCell id="62" value="gate" style="rhombus;whiteSpace=wrap;html=1;" vertex="1" parent="1">
                    <mxGeometry x="900" y="1060" width="80" height="40" as="geometry"/>
                </mxCell>
                <mxCell id="63" value="" style="edgeStyle=none;orthogonalLoop=1;jettySize=auto;html=1;entryX=-0.006;entryY=0.333;entryDx=0;entryDy=0;entryPerimeter=0;" edge="1" parent="1" source="62" target="64">
                    <mxGeometry width="100" relative="1" as="geometry">
                        <mxPoint x="670" y="1099.7" as="sourcePoint"/>
                        <mxPoint x="1150" y="1080" as="targetPoint"/>
                        <Array as="points"/>
                    </mxGeometry>
                </mxCell>
                <mxCell id="64" value="Queue" style="shape=process;whiteSpace=wrap;html=1;backgroundOutline=1;" vertex="1" parent="1">
                    <mxGeometry x="1241" y="1000" width="160" height="240" as="geometry"/>
                </mxCell>
                <mxCell id="65" value="s_pop" style="text;html=1;align=center;verticalAlign=middle;resizable=0;points=[];autosize=1;strokeColor=none;fillColor=none;" vertex="1" parent="1">
                    <mxGeometry x="1170" y="1050" width="60" height="30" as="geometry"/>
                </mxCell>
                <mxCell id="68" value="" style="edgeStyle=none;orthogonalLoop=1;jettySize=auto;html=1;jumpStyle=arc;exitX=1.001;exitY=0.828;exitDx=0;exitDy=0;exitPerimeter=0;entryX=0.659;entryY=0.994;entryDx=0;entryDy=0;entryPerimeter=0;" edge="1" parent="1" source="3" target="150">
                    <mxGeometry width="100" relative="1" as="geometry">
                        <mxPoint x="1080" y="920" as="sourcePoint"/>
                        <mxPoint x="1010" y="930" as="targetPoint"/>
                        <Array as="points">
                            <mxPoint x="1000" y="1000"/>
                            <mxPoint x="1040" y="1000"/>
                        </Array>
                    </mxGeometry>
                </mxCell>
                <mxCell id="69" value="s_exchange" style="text;html=1;align=center;verticalAlign=middle;resizable=0;points=[];autosize=1;strokeColor=none;fillColor=none;" vertex="1" parent="1">
                    <mxGeometry x="1120" y="950" width="90" height="30" as="geometry"/>
                </mxCell>
                <mxCell id="70" value="s_currentKF" style="text;html=1;align=center;verticalAlign=middle;resizable=0;points=[];autosize=1;strokeColor=none;fillColor=none;" vertex="1" parent="1">
                    <mxGeometry x="1390.5" y="1210" width="90" height="30" as="geometry"/>
                </mxCell>
                <mxCell id="71" value="s_popped" style="text;html=1;align=center;verticalAlign=middle;resizable=0;points=[];autosize=1;strokeColor=none;fillColor=none;" vertex="1" parent="1">
                    <mxGeometry x="1310.5" y="1060" width="80" height="30" as="geometry"/>
                </mxCell>
                <mxCell id="72" value="" style="edgeStyle=none;orthogonalLoop=1;jettySize=auto;html=1;exitX=0.999;exitY=0.326;exitDx=0;exitDy=0;exitPerimeter=0;jumpStyle=arc;" edge="1" parent="1">
                    <mxGeometry width="100" relative="1" as="geometry">
                        <mxPoint x="-79.99999999999983" y="760" as="sourcePoint"/>
                        <mxPoint x="880" y="760" as="targetPoint"/>
                        <Array as="points"/>
                    </mxGeometry>
                </mxCell>
                <mxCell id="73" value="" style="edgeStyle=none;orthogonalLoop=1;jettySize=auto;html=1;entryX=0;entryY=0.5;entryDx=0;entryDy=0;" edge="1" parent="1" target="64">
                    <mxGeometry width="100" relative="1" as="geometry">
                        <mxPoint x="-70" y="1320" as="sourcePoint"/>
                        <mxPoint x="1220" y="1140" as="targetPoint"/>
                        <Array as="points">
                            <mxPoint x="1000" y="1320"/>
                            <mxPoint x="1000" y="1120"/>
                        </Array>
                    </mxGeometry>
                </mxCell>
                <mxCell id="74" value="" style="edgeStyle=none;orthogonalLoop=1;jettySize=auto;html=1;endArrow=diamondThin;endFill=0;endSize=12;" edge="1" parent="1">
                    <mxGeometry width="100" relative="1" as="geometry">
                        <mxPoint x="880" y="840" as="sourcePoint"/>
                        <mxPoint x="3200" y="840" as="targetPoint"/>
                        <Array as="points"/>
                    </mxGeometry>
                </mxCell>
                <mxCell id="75" value="map" style="shape=offPageConnector;whiteSpace=wrap;html=1;" vertex="1" parent="1">
                    <mxGeometry x="900" y="880" width="80" height="40" as="geometry"/>
                </mxCell>
                <mxCell id="76" value="" style="edgeStyle=none;orthogonalLoop=1;jettySize=auto;html=1;endArrow=diamondThin;endFill=0;endSize=12;" edge="1" parent="1" source="75" target="62">
                    <mxGeometry width="100" relative="1" as="geometry">
                        <mxPoint x="90" y="820" as="sourcePoint"/>
                        <mxPoint x="190" y="820" as="targetPoint"/>
                        <Array as="points"/>
                    </mxGeometry>
                </mxCell>
                <mxCell id="77" value="s_push" style="text;html=1;align=center;verticalAlign=middle;resizable=0;points=[];autosize=1;strokeColor=none;fillColor=none;" vertex="1" parent="1">
                    <mxGeometry x="1171" y="1090" width="60" height="30" as="geometry"/>
                </mxCell>
                <mxCell id="78" value="s_insertKF" style="text;html=1;align=center;verticalAlign=middle;resizable=0;points=[];autosize=1;strokeColor=none;fillColor=none;" vertex="1" parent="1">
                    <mxGeometry x="-170" y="1305" width="80" height="30" as="geometry"/>
                </mxCell>
                <mxCell id="79" value="ProcessNewKeyFrame" style="shape=process;whiteSpace=wrap;html=1;backgroundOutline=1;" vertex="1" parent="1">
                    <mxGeometry x="120" y="1480" width="200" height="120" as="geometry"/>
                </mxCell>
                <mxCell id="80" value="" style="edgeStyle=none;orthogonalLoop=1;jettySize=auto;html=1;endArrow=diamondThin;endFill=0;endSize=12;entryX=-0.009;entryY=0.652;entryDx=0;entryDy=0;entryPerimeter=0;" edge="1" parent="1" target="79">
                    <mxGeometry width="100" relative="1" as="geometry">
                        <mxPoint x="-120" y="1560" as="sourcePoint"/>
                        <mxPoint x="-20" y="1630" as="targetPoint"/>
                        <Array as="points"/>
                    </mxGeometry>
                </mxCell>
                <mxCell id="81" value="c_atlas" style="text;html=1;align=center;verticalAlign=middle;resizable=0;points=[];autosize=1;strokeColor=none;fillColor=none;" vertex="1" parent="1">
                    <mxGeometry x="-200" y="1545" width="60" height="30" as="geometry"/>
                </mxCell>
                <mxCell id="82" value="" style="edgeStyle=none;orthogonalLoop=1;jettySize=auto;html=1;entryX=-0.001;entryY=0.203;entryDx=0;entryDy=0;entryPerimeter=0;exitX=1.002;exitY=0.329;exitDx=0;exitDy=0;exitPerimeter=0;" edge="1" parent="1" source="79" target="84">
                    <mxGeometry width="100" relative="1" as="geometry">
                        <mxPoint x="490.84" y="1545" as="sourcePoint"/>
                        <mxPoint x="520" y="1540" as="targetPoint"/>
                        <Array as="points"/>
                    </mxGeometry>
                </mxCell>
                <mxCell id="83" value="s_recentAddedMPs" style="text;html=1;align=center;verticalAlign=middle;resizable=0;points=[];autosize=1;strokeColor=none;fillColor=none;" vertex="1" parent="1">
                    <mxGeometry x="349" y="1490" width="130" height="30" as="geometry"/>
                </mxCell>
                <mxCell id="84" value="MapPointCulling" style="shape=process;whiteSpace=wrap;html=1;backgroundOutline=1;" vertex="1" parent="1">
                    <mxGeometry x="519" y="1480" width="240" height="200" as="geometry"/>
                </mxCell>
                <mxCell id="85" value="s_currentKF" style="text;html=1;align=center;verticalAlign=middle;resizable=0;points=[];autosize=1;strokeColor=none;fillColor=none;" vertex="1" parent="1">
                    <mxGeometry x="369" y="1525" width="90" height="30" as="geometry"/>
                </mxCell>
                <mxCell id="86" value="" style="edgeStyle=none;orthogonalLoop=1;jettySize=auto;html=1;entryX=-0.001;entryY=0.203;entryDx=0;entryDy=0;entryPerimeter=0;exitX=1.002;exitY=0.329;exitDx=0;exitDy=0;exitPerimeter=0;" edge="1" parent="1">
                    <mxGeometry width="100" relative="1" as="geometry">
                        <mxPoint x="320.6400000000001" y="1559.44" as="sourcePoint"/>
                        <mxPoint x="519.0000000000002" y="1560.56" as="targetPoint"/>
                        <Array as="points"/>
                    </mxGeometry>
                </mxCell>
                <mxCell id="88" value="" style="edgeStyle=none;orthogonalLoop=1;jettySize=auto;html=1;endArrow=diamondThin;endFill=0;endSize=12;entryX=-0.01;entryY=0.801;entryDx=0;entryDy=0;entryPerimeter=0;" edge="1" parent="1" target="84">
                    <mxGeometry width="100" relative="1" as="geometry">
                        <mxPoint x="-118" y="1640" as="sourcePoint"/>
                        <mxPoint x="410" y="1640" as="targetPoint"/>
                        <Array as="points"/>
                    </mxGeometry>
                </mxCell>
                <mxCell id="89" value="c_isMonocular" style="text;html=1;align=center;verticalAlign=middle;resizable=0;points=[];autosize=1;strokeColor=none;fillColor=none;" vertex="1" parent="1">
                    <mxGeometry x="-225" y="1620" width="100" height="30" as="geometry"/>
                </mxCell>
                <mxCell id="90" value="CreateNewMapPoints" style="shape=process;whiteSpace=wrap;html=1;backgroundOutline=1;" vertex="1" parent="1">
                    <mxGeometry x="920" y="1520" width="240" height="440" as="geometry"/>
                </mxCell>
                <mxCell id="91" value="" style="edgeStyle=none;orthogonalLoop=1;jettySize=auto;html=1;endArrow=diamondThin;endFill=0;endSize=12;jumpStyle=arc;" edge="1" parent="1">
                    <mxGeometry width="100" relative="1" as="geometry">
                        <mxPoint x="-40" y="1560" as="sourcePoint"/>
                        <mxPoint x="900" y="1760" as="targetPoint"/>
                        <Array as="points">
                            <mxPoint y="1560"/>
                            <mxPoint y="1760"/>
                        </Array>
                    </mxGeometry>
                </mxCell>
                <mxCell id="92" value="" style="edgeStyle=none;orthogonalLoop=1;jettySize=auto;html=1;endArrow=diamondThin;endFill=0;endSize=12;jumpStyle=arc;" edge="1" parent="1">
                    <mxGeometry width="100" relative="1" as="geometry">
                        <mxPoint x="40" y="1640" as="sourcePoint"/>
                        <mxPoint x="890" y="1720" as="targetPoint"/>
                        <Array as="points">
                            <mxPoint x="80" y="1640"/>
                            <mxPoint x="80" y="1720"/>
                        </Array>
                    </mxGeometry>
                </mxCell>
                <mxCell id="93" value="" style="edgeStyle=none;orthogonalLoop=1;jettySize=auto;html=1;entryX=-0.009;entryY=0.269;entryDx=0;entryDy=0;entryPerimeter=0;" edge="1" parent="1" target="90">
                    <mxGeometry width="100" relative="1" as="geometry">
                        <mxPoint x="760" y="1640" as="sourcePoint"/>
                        <mxPoint x="920" y="1720" as="targetPoint"/>
                        <Array as="points"/>
                    </mxGeometry>
                </mxCell>
                <mxCell id="94" value="s_currentKF" style="text;html=1;align=center;verticalAlign=middle;resizable=0;points=[];autosize=1;strokeColor=none;fillColor=none;" vertex="1" parent="1">
                    <mxGeometry x="820" y="1640" width="90" height="30" as="geometry"/>
                </mxCell>
                <mxCell id="95" value="" style="edgeStyle=none;orthogonalLoop=1;jettySize=auto;html=1;jumpStyle=arc;exitX=1.007;exitY=0.397;exitDx=0;exitDy=0;exitPerimeter=0;entryX=-0.001;entryY=0.182;entryDx=0;entryDy=0;entryPerimeter=0;" edge="1" parent="1" source="84" target="90">
                    <mxGeometry width="100" relative="1" as="geometry">
                        <mxPoint x="760" y="1520" as="sourcePoint"/>
                        <mxPoint x="1080" y="1510" as="targetPoint"/>
                        <Array as="points">
                            <mxPoint x="840" y="1559"/>
                            <mxPoint x="840" y="1600"/>
                        </Array>
                    </mxGeometry>
                </mxCell>
                <mxCell id="96" value="s_recentAddedMPs" style="text;html=1;align=center;verticalAlign=middle;resizable=0;points=[];autosize=1;strokeColor=none;fillColor=none;" vertex="1" parent="1">
                    <mxGeometry x="785" y="1600" width="130" height="30" as="geometry"/>
                </mxCell>
                <mxCell id="97" value="" style="edgeStyle=none;orthogonalLoop=1;jettySize=auto;html=1;endArrow=diamondThin;endFill=0;endSize=12;jumpStyle=arc;" edge="1" parent="1">
                    <mxGeometry width="100" relative="1" as="geometry">
                        <mxPoint x="-120" y="1800" as="sourcePoint"/>
                        <mxPoint x="890" y="1800" as="targetPoint"/>
                        <Array as="points"/>
                    </mxGeometry>
                </mxCell>
                <mxCell id="99" value="c_tracker" style="text;html=1;align=center;verticalAlign=middle;resizable=0;points=[];autosize=1;strokeColor=none;fillColor=none;" vertex="1" parent="1">
                    <mxGeometry x="-235" y="1785" width="70" height="30" as="geometry"/>
                </mxCell>
                <mxCell id="100" value="c_isInertial" style="text;html=1;align=center;verticalAlign=middle;resizable=0;points=[];autosize=1;strokeColor=none;fillColor=none;" vertex="1" parent="1">
                    <mxGeometry x="-235" y="1830" width="80" height="30" as="geometry"/>
                </mxCell>
                <mxCell id="101" value="c_farPoints" style="text;html=1;align=center;verticalAlign=middle;resizable=0;points=[];autosize=1;strokeColor=none;fillColor=none;" vertex="1" parent="1">
                    <mxGeometry x="-235" y="1870" width="80" height="30" as="geometry"/>
                </mxCell>
                <mxCell id="102" value="" style="edgeStyle=none;orthogonalLoop=1;jettySize=auto;html=1;endArrow=diamondThin;endFill=0;endSize=12;jumpStyle=arc;" edge="1" parent="1">
                    <mxGeometry width="100" relative="1" as="geometry">
                        <mxPoint x="-120" y="1840" as="sourcePoint"/>
                        <mxPoint x="890" y="1840" as="targetPoint"/>
                        <Array as="points"/>
                    </mxGeometry>
                </mxCell>
                <mxCell id="103" value="" style="edgeStyle=none;orthogonalLoop=1;jettySize=auto;html=1;endArrow=diamondThin;endFill=0;endSize=12;jumpStyle=arc;" edge="1" parent="1">
                    <mxGeometry width="100" relative="1" as="geometry">
                        <mxPoint x="-125" y="1880" as="sourcePoint"/>
                        <mxPoint x="885" y="1880" as="targetPoint"/>
                        <Array as="points"/>
                    </mxGeometry>
                </mxCell>
                <mxCell id="104" value="" style="edgeStyle=none;orthogonalLoop=1;jettySize=auto;html=1;endArrow=diamondThin;endFill=0;endSize=12;jumpStyle=arc;" edge="1" parent="1">
                    <mxGeometry width="100" relative="1" as="geometry">
                        <mxPoint x="-130" y="1920" as="sourcePoint"/>
                        <mxPoint x="910" y="1920" as="targetPoint"/>
                        <Array as="points"/>
                    </mxGeometry>
                </mxCell>
                <mxCell id="105" value="c_thFarPoints" style="text;html=1;align=center;verticalAlign=middle;resizable=0;points=[];autosize=1;strokeColor=none;fillColor=none;" vertex="1" parent="1">
                    <mxGeometry x="-240" y="1910" width="100" height="30" as="geometry"/>
                </mxCell>
                <mxCell id="106" value="" style="edgeStyle=none;orthogonalLoop=1;jettySize=auto;html=1;endArrow=diamondThin;endFill=0;endSize=12;jumpStyle=arc;" edge="1" parent="1">
                    <mxGeometry width="100" relative="1" as="geometry">
                        <mxPoint x="540" y="1254.38" as="sourcePoint"/>
                        <mxPoint x="640" y="1254.38" as="targetPoint"/>
                        <Array as="points"/>
                    </mxGeometry>
                </mxCell>
                <mxCell id="107" value="" style="edgeStyle=none;orthogonalLoop=1;jettySize=auto;html=1;endArrow=diamondThin;endFill=0;endSize=12;jumpStyle=arc;" edge="1" parent="1" source="64" target="109">
                    <mxGeometry width="100" relative="1" as="geometry">
                        <mxPoint x="759" y="1410" as="sourcePoint"/>
                        <mxPoint x="1480" y="1120" as="targetPoint"/>
                        <Array as="points">
                            <mxPoint x="1600" y="1120"/>
                        </Array>
                    </mxGeometry>
                </mxCell>
                <mxCell id="108" value="c_length" style="text;html=1;align=center;verticalAlign=middle;resizable=0;points=[];autosize=1;strokeColor=none;fillColor=none;" vertex="1" parent="1">
                    <mxGeometry x="1400.5" y="1085" width="70" height="30" as="geometry"/>
                </mxCell>
                <mxCell id="109" value="map" style="shape=offPageConnector;whiteSpace=wrap;html=1;direction=east;" vertex="1" parent="1">
                    <mxGeometry x="1560" y="1230" width="80" height="80" as="geometry"/>
                </mxCell>
                <mxCell id="110" value="" style="edgeStyle=none;orthogonalLoop=1;jettySize=auto;html=1;endArrow=diamondThin;endFill=0;endSize=12;jumpStyle=arc;entryX=-0.005;entryY=0.085;entryDx=0;entryDy=0;entryPerimeter=0;" edge="1" parent="1" source="109" target="90">
                    <mxGeometry width="100" relative="1" as="geometry">
                        <mxPoint x="1300.5" y="1753" as="sourcePoint"/>
                        <mxPoint x="1400.4999999999998" y="1753" as="targetPoint"/>
                        <Array as="points">
                            <mxPoint x="1600" y="1340"/>
                            <mxPoint x="1600" y="1480"/>
                            <mxPoint x="880" y="1480"/>
                            <mxPoint x="880" y="1557"/>
                        </Array>
                    </mxGeometry>
                </mxCell>
                <mxCell id="111" value="c_isExistsNewKF" style="text;html=1;align=center;verticalAlign=middle;resizable=0;points=[];autosize=1;strokeColor=none;fillColor=none;" vertex="1" parent="1">
                    <mxGeometry x="1610" y="1370" width="120" height="30" as="geometry"/>
                </mxCell>
                <mxCell id="112" value="SearchInNeighbors" style="shape=process;whiteSpace=wrap;html=1;backgroundOutline=1;" vertex="1" parent="1">
                    <mxGeometry x="1520" y="1720" width="240" height="240" as="geometry"/>
                </mxCell>
                <mxCell id="114" value="" style="edgeStyle=none;orthogonalLoop=1;jettySize=auto;html=1;" edge="1" parent="1" target="125">
                    <mxGeometry width="100" relative="1" as="geometry">
                        <mxPoint x="1160" y="1760" as="sourcePoint"/>
                        <mxPoint x="1330" y="1790" as="targetPoint"/>
                        <Array as="points"/>
                    </mxGeometry>
                </mxCell>
                <mxCell id="115" value="s_currentKF" style="text;html=1;align=center;verticalAlign=middle;resizable=0;points=[];autosize=1;strokeColor=none;fillColor=none;" vertex="1" parent="1">
                    <mxGeometry x="1180" y="1724" width="90" height="30" as="geometry"/>
                </mxCell>
                <mxCell id="117" value="" style="edgeStyle=none;orthogonalLoop=1;jettySize=auto;html=1;endArrow=diamondThin;endFill=0;endSize=12;jumpStyle=arc;entryX=-0.003;entryY=0.669;entryDx=0;entryDy=0;entryPerimeter=0;" edge="1" parent="1" target="112">
                    <mxGeometry width="100" relative="1" as="geometry">
                        <mxPoint x="80" y="1680" as="sourcePoint"/>
                        <mxPoint x="1100" y="2030" as="targetPoint"/>
                        <Array as="points">
                            <mxPoint x="80" y="2040"/>
                            <mxPoint x="1360" y="2040"/>
                            <mxPoint x="1360" y="1880"/>
                        </Array>
                    </mxGeometry>
                </mxCell>
                <mxCell id="118" value="" style="edgeStyle=none;orthogonalLoop=1;jettySize=auto;html=1;endArrow=diamondThin;endFill=0;endSize=12;jumpStyle=arc;" edge="1" parent="1" target="112">
                    <mxGeometry width="100" relative="1" as="geometry">
                        <mxPoint x="120" y="1840" as="sourcePoint"/>
                        <mxPoint x="1090" y="2000" as="targetPoint"/>
                        <Array as="points">
                            <mxPoint x="160" y="1840"/>
                            <mxPoint x="160" y="2000"/>
                            <mxPoint x="1320" y="2000"/>
                            <mxPoint x="1320" y="1840"/>
                        </Array>
                    </mxGeometry>
                </mxCell>
                <mxCell id="119" value="" style="edgeStyle=none;orthogonalLoop=1;jettySize=auto;html=1;jumpStyle=arc;exitX=0.997;exitY=0.18;exitDx=0;exitDy=0;exitPerimeter=0;" edge="1" parent="1" source="90">
                    <mxGeometry width="100" relative="1" as="geometry">
                        <mxPoint x="1270.8400000000001" y="1575" as="sourcePoint"/>
                        <mxPoint x="1480" y="1600" as="targetPoint"/>
                        <Array as="points"/>
                    </mxGeometry>
                </mxCell>
                <mxCell id="120" value="s_recentAddedMPs" style="text;html=1;align=center;verticalAlign=middle;resizable=0;points=[];autosize=1;strokeColor=none;fillColor=none;" vertex="1" parent="1">
                    <mxGeometry x="1256" y="1555" width="130" height="30" as="geometry"/>
                </mxCell>
                <mxCell id="122" value="s_currentKF" style="text;html=1;align=center;verticalAlign=middle;resizable=0;points=[];autosize=1;strokeColor=none;fillColor=none;" vertex="1" parent="1">
                    <mxGeometry x="1780" y="1800" width="90" height="30" as="geometry"/>
                </mxCell>
                <mxCell id="124" value="" style="edgeStyle=none;orthogonalLoop=1;jettySize=auto;html=1;jumpStyle=arc;entryX=0.25;entryY=1;entryDx=0;entryDy=0;" edge="1" parent="1" target="215">
                    <mxGeometry width="100" relative="1" as="geometry">
                        <mxPoint x="1280" y="1760" as="sourcePoint"/>
                        <mxPoint x="2840" y="1680" as="targetPoint"/>
                        <Array as="points">
                            <mxPoint x="1320" y="1760"/>
                            <mxPoint x="1320" y="1680"/>
                            <mxPoint x="1840" y="1680"/>
                        </Array>
                    </mxGeometry>
                </mxCell>
                <mxCell id="125" value="==false" style="rhombus;whiteSpace=wrap;html=1;" vertex="1" parent="1">
                    <mxGeometry x="1360" y="1720" width="80" height="80" as="geometry"/>
                </mxCell>
                <mxCell id="126" value="" style="edgeStyle=none;orthogonalLoop=1;jettySize=auto;html=1;jumpStyle=arc;" edge="1" parent="1" source="112">
                    <mxGeometry width="100" relative="1" as="geometry">
                        <mxPoint x="1980" y="1819.2307692307695" as="sourcePoint"/>
                        <mxPoint x="360" y="2240" as="targetPoint"/>
                        <Array as="points">
                            <mxPoint x="1840" y="1840"/>
                            <mxPoint x="1840" y="2120"/>
                            <mxPoint x="320" y="2120"/>
                            <mxPoint x="320" y="2240"/>
                        </Array>
                    </mxGeometry>
                </mxCell>
                <mxCell id="127" value="" style="edgeStyle=none;orthogonalLoop=1;jettySize=auto;html=1;endArrow=diamondThin;endFill=0;endSize=12;jumpStyle=arc;entryX=0.5;entryY=0;entryDx=0;entryDy=0;" edge="1" parent="1" target="125">
                    <mxGeometry width="100" relative="1" as="geometry">
                        <mxPoint x="1520" y="1480" as="sourcePoint"/>
                        <mxPoint x="1780" y="1524.12" as="targetPoint"/>
                        <Array as="points">
                            <mxPoint x="1400" y="1480"/>
                        </Array>
                    </mxGeometry>
                </mxCell>
                <mxCell id="128" value="" style="edgeStyle=none;orthogonalLoop=1;jettySize=auto;html=1;jumpStyle=arc;entryX=-0.001;entryY=0.164;entryDx=0;entryDy=0;entryPerimeter=0;" edge="1" parent="1" source="125" target="112">
                    <mxGeometry width="100" relative="1" as="geometry">
                        <mxPoint x="1420" y="2060" as="sourcePoint"/>
                        <mxPoint x="1609.1599999999999" y="2061.76" as="targetPoint"/>
                        <Array as="points"/>
                    </mxGeometry>
                </mxCell>
                <mxCell id="134" value="LocalBA" style="shape=process;whiteSpace=wrap;html=1;backgroundOutline=1;" vertex="1" parent="1">
                    <mxGeometry x="519" y="2200" width="240" height="240" as="geometry"/>
                </mxCell>
                <mxCell id="135" value="" style="edgeStyle=none;orthogonalLoop=1;jettySize=auto;html=1;endArrow=diamondThin;endFill=0;endSize=12;jumpStyle=arc;entryX=-0.005;entryY=0.334;entryDx=0;entryDy=0;entryPerimeter=0;" edge="1" parent="1" target="134">
                    <mxGeometry width="100" relative="1" as="geometry">
                        <mxPoint x="200" y="1800" as="sourcePoint"/>
                        <mxPoint x="480" y="2310" as="targetPoint"/>
                        <Array as="points">
                            <mxPoint x="240" y="1800"/>
                            <mxPoint x="240" y="2280"/>
                        </Array>
                    </mxGeometry>
                </mxCell>
                <mxCell id="136" value="" style="edgeStyle=none;orthogonalLoop=1;jettySize=auto;html=1;endArrow=diamondThin;endFill=0;endSize=12;jumpStyle=arc;entryX=0;entryY=0.667;entryDx=0;entryDy=0;entryPerimeter=0;" edge="1" parent="1" target="134">
                    <mxGeometry width="100" relative="1" as="geometry">
                        <mxPoint x="80" y="1960" as="sourcePoint"/>
                        <mxPoint x="490" y="2330" as="targetPoint"/>
                        <Array as="points">
                            <mxPoint x="80" y="2360"/>
                        </Array>
                    </mxGeometry>
                </mxCell>
                <mxCell id="137" value="" style="edgeStyle=none;orthogonalLoop=1;jettySize=auto;html=1;endArrow=diamondThin;endFill=0;endSize=12;jumpStyle=arc;entryX=0;entryY=0.5;entryDx=0;entryDy=0;" edge="1" parent="1" target="134">
                    <mxGeometry width="100" relative="1" as="geometry">
                        <mxPoint x="160" y="1990" as="sourcePoint"/>
                        <mxPoint x="210" y="2160" as="targetPoint"/>
                        <Array as="points">
                            <mxPoint x="160" y="2320"/>
                        </Array>
                    </mxGeometry>
                </mxCell>
                <mxCell id="138" value="c_isInertial" style="text;html=1;align=center;verticalAlign=middle;resizable=0;points=[];autosize=1;strokeColor=none;fillColor=none;" vertex="1" parent="1">
                    <mxGeometry x="429" y="2290" width="80" height="30" as="geometry"/>
                </mxCell>
                <mxCell id="139" value="c_tracker" style="text;html=1;align=center;verticalAlign=middle;resizable=0;points=[];autosize=1;strokeColor=none;fillColor=none;" vertex="1" parent="1">
                    <mxGeometry x="439" y="2250" width="70" height="30" as="geometry"/>
                </mxCell>
                <mxCell id="140" value="s_currentKF" style="text;html=1;align=center;verticalAlign=middle;resizable=0;points=[];autosize=1;strokeColor=none;fillColor=none;" vertex="1" parent="1">
                    <mxGeometry x="429" y="2210" width="90" height="30" as="geometry"/>
                </mxCell>
                <mxCell id="141" value="c_isMonocular" style="text;html=1;align=center;verticalAlign=middle;resizable=0;points=[];autosize=1;strokeColor=none;fillColor=none;" vertex="1" parent="1">
                    <mxGeometry x="419" y="2330" width="100" height="30" as="geometry"/>
                </mxCell>
                <mxCell id="142" value="c_isInertial" style="text;html=1;align=center;verticalAlign=middle;resizable=0;points=[];autosize=1;strokeColor=none;fillColor=none;" vertex="1" parent="1">
                    <mxGeometry x="1430" y="1810" width="80" height="30" as="geometry"/>
                </mxCell>
                <mxCell id="143" value="c_isMonocular" style="text;html=1;align=center;verticalAlign=middle;resizable=0;points=[];autosize=1;strokeColor=none;fillColor=none;" vertex="1" parent="1">
                    <mxGeometry x="1420" y="1850" width="100" height="30" as="geometry"/>
                </mxCell>
                <mxCell id="144" value="s_badIMU" style="text;html=1;align=center;verticalAlign=middle;resizable=0;points=[];autosize=1;strokeColor=none;fillColor=none;" vertex="1" parent="1">
                    <mxGeometry x="750" y="2290" width="80" height="30" as="geometry"/>
                </mxCell>
                <mxCell id="145" value="" style="edgeStyle=none;orthogonalLoop=1;jettySize=auto;html=1;jumpStyle=arc;" edge="1" parent="1" source="134" target="146">
                    <mxGeometry width="100" relative="1" as="geometry">
                        <mxPoint x="759.0000000000001" y="2310" as="sourcePoint"/>
                        <mxPoint x="920" y="2320" as="targetPoint"/>
                        <Array as="points"/>
                    </mxGeometry>
                </mxCell>
                <mxCell id="146" value="map_to&lt;br&gt;true" style="shape=offPageConnector;whiteSpace=wrap;html=1;direction=north;" vertex="1" parent="1">
                    <mxGeometry x="920" y="2280" width="80" height="80" as="geometry"/>
                </mxCell>
                <mxCell id="148" value="" style="edgeStyle=none;orthogonalLoop=1;jettySize=auto;html=1;exitX=0.999;exitY=0.326;exitDx=0;exitDy=0;exitPerimeter=0;jumpStyle=arc;" edge="1" parent="1">
                    <mxGeometry width="100" relative="1" as="geometry">
                        <mxPoint x="-314.16" y="2250" as="sourcePoint"/>
                        <mxPoint x="-125.00000000000016" y="2251.76" as="targetPoint"/>
                        <Array as="points"/>
                    </mxGeometry>
                </mxCell>
                <mxCell id="149" value="s_resetActiveMap" style="text;html=1;align=center;verticalAlign=middle;resizable=0;points=[];autosize=1;strokeColor=none;fillColor=none;" vertex="1" parent="1">
                    <mxGeometry x="-215" y="745" width="120" height="30" as="geometry"/>
                </mxCell>
                <mxCell id="150" value="or_else" style="shape=trapezoid;perimeter=trapezoidPerimeter;whiteSpace=wrap;html=1;fixedSize=1;direction=south;" vertex="1" parent="1">
                    <mxGeometry x="1080" y="920" width="40" height="120" as="geometry"/>
                </mxCell>
                <mxCell id="151" value="map_to&lt;br&gt;empty list" style="shape=offPageConnector;whiteSpace=wrap;html=1;direction=north;" vertex="1" parent="1">
                    <mxGeometry x="880" y="720" width="80" height="80" as="geometry"/>
                </mxCell>
                <mxCell id="152" value="" style="edgeStyle=none;orthogonalLoop=1;jettySize=auto;html=1;jumpStyle=arc;entryX=0.333;entryY=1.05;entryDx=0;entryDy=0;entryPerimeter=0;" edge="1" parent="1" source="151" target="150">
                    <mxGeometry width="100" relative="1" as="geometry">
                        <mxPoint x="1070" y="740" as="sourcePoint"/>
                        <mxPoint x="1259.1599999999999" y="741.7600000000002" as="targetPoint"/>
                        <Array as="points">
                            <mxPoint x="1040" y="760"/>
                            <mxPoint x="1040" y="960"/>
                        </Array>
                    </mxGeometry>
                </mxCell>
                <mxCell id="153" value="" style="edgeStyle=none;orthogonalLoop=1;jettySize=auto;html=1;exitX=0.5;exitY=0;exitDx=0;exitDy=0;jumpStyle=arc;" edge="1" parent="1" source="150">
                    <mxGeometry width="100" relative="1" as="geometry">
                        <mxPoint x="544.4200000000001" y="1360" as="sourcePoint"/>
                        <mxPoint x="1240" y="1040" as="targetPoint"/>
                        <Array as="points">
                            <mxPoint x="1180" y="980"/>
                            <mxPoint x="1180" y="1040"/>
                        </Array>
                    </mxGeometry>
                </mxCell>
                <mxCell id="154" value="" style="edgeStyle=none;orthogonalLoop=1;jettySize=auto;html=1;jumpStyle=arc;entryX=0.5;entryY=0;entryDx=0;entryDy=0;" edge="1" parent="1" target="155">
                    <mxGeometry width="100" relative="1" as="geometry">
                        <mxPoint x="560" y="760" as="sourcePoint"/>
                        <mxPoint x="1090" y="2160" as="targetPoint"/>
                        <Array as="points">
                            <mxPoint x="720" y="760"/>
                            <mxPoint x="720" y="680"/>
                            <mxPoint x="1880" y="680"/>
                            <mxPoint x="1880" y="2160"/>
                            <mxPoint x="880" y="2160"/>
                            <mxPoint x="880" y="2240"/>
                        </Array>
                    </mxGeometry>
                </mxCell>
                <mxCell id="155" value="map_to&lt;br&gt;false" style="shape=offPageConnector;whiteSpace=wrap;html=1;direction=north;" vertex="1" parent="1">
                    <mxGeometry x="920" y="2200" width="80" height="80" as="geometry"/>
                </mxCell>
                <mxCell id="156" value="or_else" style="shape=trapezoid;perimeter=trapezoidPerimeter;whiteSpace=wrap;html=1;fixedSize=1;direction=south;" vertex="1" parent="1">
                    <mxGeometry x="1080" y="2218" width="40" height="120" as="geometry"/>
                </mxCell>
                <mxCell id="157" value="" style="edgeStyle=none;orthogonalLoop=1;jettySize=auto;html=1;jumpStyle=arc;entryX=0.185;entryY=1.042;entryDx=0;entryDy=0;entryPerimeter=0;" edge="1" parent="1" source="155" target="156">
                    <mxGeometry width="100" relative="1" as="geometry">
                        <mxPoint x="930.8399999999999" y="2440" as="sourcePoint"/>
                        <mxPoint x="1119.9999999999995" y="2441.76" as="targetPoint"/>
                        <Array as="points"/>
                    </mxGeometry>
                </mxCell>
                <mxCell id="159" value="" style="edgeStyle=none;orthogonalLoop=1;jettySize=auto;html=1;jumpStyle=arc;entryX=0.852;entryY=1.006;entryDx=0;entryDy=0;entryPerimeter=0;" edge="1" parent="1" source="146" target="156">
                    <mxGeometry width="100" relative="1" as="geometry">
                        <mxPoint x="1010" y="2260.857142857143" as="sourcePoint"/>
                        <mxPoint x="1090" y="2282.5714285714284" as="targetPoint"/>
                        <Array as="points"/>
                    </mxGeometry>
                </mxCell>
                <mxCell id="160" value="" style="edgeStyle=none;orthogonalLoop=1;jettySize=auto;html=1;jumpStyle=arc;entryX=0.185;entryY=1.042;entryDx=0;entryDy=0;entryPerimeter=0;" edge="1" parent="1">
                    <mxGeometry width="100" relative="1" as="geometry">
                        <mxPoint x="1120" y="2279.997613252197" as="sourcePoint"/>
                        <mxPoint x="1198.3199999999997" y="2280.13" as="targetPoint"/>
                        <Array as="points"/>
                    </mxGeometry>
                </mxCell>
                <mxCell id="161" value="hold&lt;br&gt;false" style="rounded=1;whiteSpace=wrap;html=1;" vertex="1" parent="1">
                    <mxGeometry x="1200" y="2250" width="120" height="60" as="geometry"/>
                </mxCell>
                <mxCell id="162" value="" style="edgeStyle=none;orthogonalLoop=1;jettySize=auto;html=1;endArrow=diamondThin;endFill=0;endSize=12;jumpStyle=arc;" edge="1" parent="1" source="161">
                    <mxGeometry width="100" relative="1" as="geometry">
                        <mxPoint x="1440" y="2337" as="sourcePoint"/>
                        <mxPoint x="3200" y="2280" as="targetPoint"/>
                        <Array as="points"/>
                    </mxGeometry>
                </mxCell>
                <mxCell id="163" value="c_isBadIMU" style="text;html=1;align=center;verticalAlign=middle;resizable=0;points=[];autosize=1;strokeColor=none;fillColor=none;" vertex="1" parent="1">
                    <mxGeometry x="1330" y="2250" width="90" height="30" as="geometry"/>
                </mxCell>
                <mxCell id="164" value="" style="edgeStyle=none;orthogonalLoop=1;jettySize=auto;html=1;jumpStyle=arc;" edge="1" parent="1">
                    <mxGeometry width="100" relative="1" as="geometry">
                        <mxPoint x="880" y="2120" as="sourcePoint"/>
                        <mxPoint x="920" y="2520" as="targetPoint"/>
                        <Array as="points">
                            <mxPoint x="840" y="2120"/>
                            <mxPoint x="840" y="2520"/>
                        </Array>
                    </mxGeometry>
                </mxCell>
                <mxCell id="165" value="filter" style="rhombus;whiteSpace=wrap;html=1;" vertex="1" parent="1">
                    <mxGeometry x="359" y="2220" width="80" height="40" as="geometry"/>
                </mxCell>
                <mxCell id="166" value="" style="edgeStyle=none;orthogonalLoop=1;jettySize=auto;html=1;jumpStyle=arc;entryX=-0.002;entryY=0.168;entryDx=0;entryDy=0;entryPerimeter=0;" edge="1" parent="1" source="165" target="134">
                    <mxGeometry width="100" relative="1" as="geometry">
                        <mxPoint x="259.9999999999999" y="2410" as="sourcePoint"/>
                        <mxPoint x="449.15999999999974" y="2411.76" as="targetPoint"/>
                        <Array as="points"/>
                    </mxGeometry>
                </mxCell>
                <mxCell id="167" value="" style="edgeStyle=none;orthogonalLoop=1;jettySize=auto;html=1;jumpStyle=arc;" edge="1" parent="1">
                    <mxGeometry width="100" relative="1" as="geometry">
                        <mxPoint x="760" y="2360" as="sourcePoint"/>
                        <mxPoint x="920" y="2560" as="targetPoint"/>
                        <Array as="points">
                            <mxPoint x="800" y="2360"/>
                            <mxPoint x="800" y="2560"/>
                        </Array>
                    </mxGeometry>
                </mxCell>
                <mxCell id="168" value="sync" style="shape=trapezoid;perimeter=trapezoidPerimeter;whiteSpace=wrap;html=1;fixedSize=1;direction=south;" vertex="1" parent="1">
                    <mxGeometry x="920" y="2480" width="40" height="120" as="geometry"/>
                </mxCell>
                <mxCell id="169" value="" style="edgeStyle=none;orthogonalLoop=1;jettySize=auto;html=1;jumpStyle=arc;" edge="1" parent="1" source="168">
                    <mxGeometry width="100" relative="1" as="geometry">
                        <mxPoint x="1030" y="2550" as="sourcePoint"/>
                        <mxPoint x="1040" y="2540" as="targetPoint"/>
                        <Array as="points"/>
                    </mxGeometry>
                </mxCell>
                <mxCell id="170" value="InitializeIMU1" style="shape=process;whiteSpace=wrap;html=1;backgroundOutline=1;" vertex="1" parent="1">
                    <mxGeometry x="1270" y="2480" width="240" height="360" as="geometry"/>
                </mxCell>
                <mxCell id="171" value="filter" style="rhombus;whiteSpace=wrap;html=1;" vertex="1" parent="1">
                    <mxGeometry x="1121" y="2520" width="80" height="40" as="geometry"/>
                </mxCell>
                <mxCell id="172" value="" style="edgeStyle=none;orthogonalLoop=1;jettySize=auto;html=1;jumpStyle=arc;entryX=-0.01;entryY=0.166;entryDx=0;entryDy=0;entryPerimeter=0;" edge="1" parent="1" source="171" target="170">
                    <mxGeometry width="100" relative="1" as="geometry">
                        <mxPoint x="1121" y="2539.63" as="sourcePoint"/>
                        <mxPoint x="1201" y="2539.63" as="targetPoint"/>
                        <Array as="points"/>
                    </mxGeometry>
                </mxCell>
                <mxCell id="173" value="s_currentKF" style="text;html=1;align=center;verticalAlign=middle;resizable=0;points=[];autosize=1;strokeColor=none;fillColor=none;" vertex="1" parent="1">
                    <mxGeometry x="1180" y="2490" width="90" height="30" as="geometry"/>
                </mxCell>
                <mxCell id="174" value="" style="edgeStyle=none;orthogonalLoop=1;jettySize=auto;html=1;endArrow=diamondThin;endFill=0;endSize=12;jumpStyle=arc;" edge="1" parent="1">
                    <mxGeometry width="100" relative="1" as="geometry">
                        <mxPoint x="-310" y="2480" as="sourcePoint"/>
                        <mxPoint x="-90" y="2479.09" as="targetPoint"/>
                        <Array as="points"/>
                    </mxGeometry>
                </mxCell>
                <mxCell id="175" value="" style="edgeStyle=none;orthogonalLoop=1;jettySize=auto;html=1;endArrow=diamondThin;endFill=0;endSize=12;jumpStyle=arc;entryX=0;entryY=0.544;entryDx=0;entryDy=0;entryPerimeter=0;" edge="1" parent="1" target="170">
                    <mxGeometry width="100" relative="1" as="geometry">
                        <mxPoint x="80" y="2300" as="sourcePoint"/>
                        <mxPoint x="1160" y="2600" as="targetPoint"/>
                        <Array as="points">
                            <mxPoint x="80" y="2680"/>
                        </Array>
                    </mxGeometry>
                </mxCell>
                <mxCell id="176" value="c_isMonocular" style="text;html=1;align=center;verticalAlign=middle;resizable=0;points=[];autosize=1;strokeColor=none;fillColor=none;" vertex="1" parent="1">
                    <mxGeometry x="1160" y="2640" width="100" height="30" as="geometry"/>
                </mxCell>
                <mxCell id="177" value="" style="edgeStyle=none;orthogonalLoop=1;jettySize=auto;html=1;endArrow=diamondThin;endFill=0;endSize=12;jumpStyle=arc;entryX=-0.011;entryY=0.67;entryDx=0;entryDy=0;entryPerimeter=0;" edge="1" parent="1" target="170">
                    <mxGeometry width="100" relative="1" as="geometry">
                        <mxPoint y="1720" as="sourcePoint"/>
                        <mxPoint x="1200" y="2720" as="targetPoint"/>
                        <Array as="points">
                            <mxPoint y="2720"/>
                        </Array>
                    </mxGeometry>
                </mxCell>
                <mxCell id="178" value="" style="edgeStyle=none;orthogonalLoop=1;jettySize=auto;html=1;endArrow=diamondThin;endFill=0;endSize=12;jumpStyle=arc;entryX=-0.003;entryY=0.442;entryDx=0;entryDy=0;entryPerimeter=0;" edge="1" parent="1" target="170">
                    <mxGeometry width="100" relative="1" as="geometry">
                        <mxPoint x="240" y="2160" as="sourcePoint"/>
                        <mxPoint x="330" y="2600" as="targetPoint"/>
                        <Array as="points">
                            <mxPoint x="240" y="2640"/>
                        </Array>
                    </mxGeometry>
                </mxCell>
                <mxCell id="179" value="" style="edgeStyle=none;orthogonalLoop=1;jettySize=auto;html=1;exitX=0.999;exitY=0.326;exitDx=0;exitDy=0;exitPerimeter=0;jumpStyle=arc;" edge="1" parent="1" target="181">
                    <mxGeometry width="100" relative="1" as="geometry">
                        <mxPoint x="-239.99999999999986" y="2755" as="sourcePoint"/>
                        <mxPoint x="-50.84" y="2756.76" as="targetPoint"/>
                        <Array as="points"/>
                    </mxGeometry>
                </mxCell>
                <mxCell id="180" value="s_changeFirstTs" style="text;html=1;align=center;verticalAlign=middle;resizable=0;points=[];autosize=1;strokeColor=none;fillColor=none;" vertex="1" parent="1">
                    <mxGeometry x="-360" y="2740" width="110" height="30" as="geometry"/>
                </mxCell>
                <mxCell id="181" value="hold&lt;br&gt;0.0" style="rounded=1;whiteSpace=wrap;html=1;" vertex="1" parent="1">
                    <mxGeometry x="-40" y="2725" width="120" height="60" as="geometry"/>
                </mxCell>
                <mxCell id="182" value="" style="edgeStyle=none;orthogonalLoop=1;jettySize=auto;html=1;endArrow=diamondThin;endFill=0;endSize=12;jumpStyle=arc;entryX=-0.007;entryY=0.777;entryDx=0;entryDy=0;entryPerimeter=0;" edge="1" parent="1" source="181" target="170">
                    <mxGeometry width="100" relative="1" as="geometry">
                        <mxPoint x="80" y="2805.91" as="sourcePoint"/>
                        <mxPoint x="280" y="2800" as="targetPoint"/>
                        <Array as="points"/>
                    </mxGeometry>
                </mxCell>
                <mxCell id="183" value="c_firstTs" style="text;html=1;align=center;verticalAlign=middle;resizable=0;points=[];autosize=1;strokeColor=none;fillColor=none;" vertex="1" parent="1">
                    <mxGeometry x="1190" y="2725" width="70" height="30" as="geometry"/>
                </mxCell>
                <mxCell id="184" value="" style="edgeStyle=none;orthogonalLoop=1;jettySize=auto;html=1;jumpStyle=arc;" edge="1" parent="1">
                    <mxGeometry width="100" relative="1" as="geometry">
                        <mxPoint x="960" y="2540" as="sourcePoint"/>
                        <mxPoint x="1640" y="2600" as="targetPoint"/>
                        <Array as="points">
                            <mxPoint x="1000" y="2540"/>
                            <mxPoint x="1000" y="2400"/>
                            <mxPoint x="1560" y="2400"/>
                            <mxPoint x="1560" y="2600"/>
                        </Array>
                    </mxGeometry>
                </mxCell>
                <mxCell id="185" value="s_currentKF" style="text;html=1;align=center;verticalAlign=middle;resizable=0;points=[];autosize=1;strokeColor=none;fillColor=none;" vertex="1" parent="1">
                    <mxGeometry x="1550" y="2570" width="90" height="30" as="geometry"/>
                </mxCell>
                <mxCell id="187" value="" style="edgeStyle=none;orthogonalLoop=1;jettySize=auto;html=1;jumpStyle=arc;" edge="1" parent="1" source="170">
                    <mxGeometry width="100" relative="1" as="geometry">
                        <mxPoint x="1440" y="2530" as="sourcePoint"/>
                        <mxPoint x="1640" y="2660" as="targetPoint"/>
                        <Array as="points"/>
                    </mxGeometry>
                </mxCell>
                <mxCell id="188" value="sync" style="shape=trapezoid;perimeter=trapezoidPerimeter;whiteSpace=wrap;html=1;fixedSize=1;direction=south;" vertex="1" parent="1">
                    <mxGeometry x="1640" y="2560" width="40" height="120" as="geometry"/>
                </mxCell>
                <mxCell id="189" value="" style="edgeStyle=none;orthogonalLoop=1;jettySize=auto;html=1;jumpStyle=arc;" edge="1" parent="1" source="188">
                    <mxGeometry width="100" relative="1" as="geometry">
                        <mxPoint x="1710" y="2630" as="sourcePoint"/>
                        <mxPoint x="1800" y="2620" as="targetPoint"/>
                        <Array as="points"/>
                    </mxGeometry>
                </mxCell>
                <mxCell id="190" value="s_currentKF" style="text;html=1;align=center;verticalAlign=middle;resizable=0;points=[];autosize=1;strokeColor=none;fillColor=none;" vertex="1" parent="1">
                    <mxGeometry x="1510" y="2630" width="90" height="30" as="geometry"/>
                </mxCell>
                <mxCell id="191" value="s_currentKF" style="text;html=1;align=center;verticalAlign=middle;resizable=0;points=[];autosize=1;strokeColor=none;fillColor=none;" vertex="1" parent="1">
                    <mxGeometry x="1680" y="2590" width="90" height="30" as="geometry"/>
                </mxCell>
                <mxCell id="192" value="InitializeIMU2and3" style="shape=process;whiteSpace=wrap;html=1;backgroundOutline=1;" vertex="1" parent="1">
                    <mxGeometry x="2000" y="2520" width="240" height="360" as="geometry"/>
                </mxCell>
                <mxCell id="193" value="c_tracker" style="text;html=1;align=center;verticalAlign=middle;resizable=0;points=[];autosize=1;strokeColor=none;fillColor=none;" vertex="1" parent="1">
                    <mxGeometry x="1181" y="2605" width="70" height="30" as="geometry"/>
                </mxCell>
                <mxCell id="194" value="gate" style="rhombus;whiteSpace=wrap;html=1;" vertex="1" parent="1">
                    <mxGeometry x="1041" y="2520" width="80" height="40" as="geometry"/>
                </mxCell>
                <mxCell id="195" value="" style="edgeStyle=none;orthogonalLoop=1;jettySize=auto;html=1;endArrow=diamondThin;endFill=0;endSize=12;jumpStyle=arc;" edge="1" parent="1" target="194">
                    <mxGeometry width="100" relative="1" as="geometry">
                        <mxPoint x="160" y="2280" as="sourcePoint"/>
                        <mxPoint x="680" y="2604.5" as="targetPoint"/>
                        <Array as="points">
                            <mxPoint x="160" y="2600"/>
                            <mxPoint x="1080" y="2600"/>
                        </Array>
                    </mxGeometry>
                </mxCell>
                <mxCell id="196" value="c_atlas" style="text;html=1;align=center;verticalAlign=middle;resizable=0;points=[];autosize=1;strokeColor=none;fillColor=none;" vertex="1" parent="1">
                    <mxGeometry x="1190" y="2695" width="60" height="30" as="geometry"/>
                </mxCell>
                <mxCell id="197" value="" style="edgeStyle=none;orthogonalLoop=1;jettySize=auto;html=1;endArrow=diamondThin;endFill=0;endSize=12;jumpStyle=arc;entryX=0.5;entryY=1;entryDx=0;entryDy=0;" edge="1" parent="1" target="198">
                    <mxGeometry width="100" relative="1" as="geometry">
                        <mxPoint x="160" y="2550" as="sourcePoint"/>
                        <mxPoint x="1600" y="2920" as="targetPoint"/>
                        <Array as="points">
                            <mxPoint x="160" y="2920"/>
                            <mxPoint x="1840" y="2920"/>
                            <mxPoint x="1840" y="2680"/>
                        </Array>
                    </mxGeometry>
                </mxCell>
                <mxCell id="198" value="gate" style="rhombus;whiteSpace=wrap;html=1;" vertex="1" parent="1">
                    <mxGeometry x="1800" y="2600" width="80" height="40" as="geometry"/>
                </mxCell>
                <mxCell id="199" value="s_currentKF" style="text;html=1;align=center;verticalAlign=middle;resizable=0;points=[];autosize=1;strokeColor=none;fillColor=none;" vertex="1" parent="1">
                    <mxGeometry x="1910" y="2590" width="90" height="30" as="geometry"/>
                </mxCell>
                <mxCell id="200" value="" style="edgeStyle=none;orthogonalLoop=1;jettySize=auto;html=1;jumpStyle=arc;" edge="1" parent="1" source="198">
                    <mxGeometry width="100" relative="1" as="geometry">
                        <mxPoint x="1880" y="2620" as="sourcePoint"/>
                        <mxPoint x="2000" y="2620" as="targetPoint"/>
                        <Array as="points"/>
                    </mxGeometry>
                </mxCell>
                <mxCell id="201" value="c_isMonocular" style="text;html=1;align=center;verticalAlign=middle;resizable=0;points=[];autosize=1;strokeColor=none;fillColor=none;" vertex="1" parent="1">
                    <mxGeometry x="1900" y="2700" width="100" height="30" as="geometry"/>
                </mxCell>
                <mxCell id="202" value="c_firstTs" style="text;html=1;align=center;verticalAlign=middle;resizable=0;points=[];autosize=1;strokeColor=none;fillColor=none;" vertex="1" parent="1">
                    <mxGeometry x="1930" y="2785" width="70" height="30" as="geometry"/>
                </mxCell>
                <mxCell id="203" value="c_tracker" style="text;html=1;align=center;verticalAlign=middle;resizable=0;points=[];autosize=1;strokeColor=none;fillColor=none;" vertex="1" parent="1">
                    <mxGeometry x="1921" y="2665" width="70" height="30" as="geometry"/>
                </mxCell>
                <mxCell id="204" value="c_atlas" style="text;html=1;align=center;verticalAlign=middle;resizable=0;points=[];autosize=1;strokeColor=none;fillColor=none;" vertex="1" parent="1">
                    <mxGeometry x="1930" y="2755" width="60" height="30" as="geometry"/>
                </mxCell>
                <mxCell id="205" value="" style="edgeStyle=none;orthogonalLoop=1;jettySize=auto;html=1;jumpStyle=arc;" edge="1" parent="1" source="192">
                    <mxGeometry width="100" relative="1" as="geometry">
                        <mxPoint x="2320" y="2680" as="sourcePoint"/>
                        <mxPoint x="2400" y="2700" as="targetPoint"/>
                        <Array as="points"/>
                    </mxGeometry>
                </mxCell>
                <mxCell id="206" value="s_currentKF" style="text;html=1;align=center;verticalAlign=middle;resizable=0;points=[];autosize=1;strokeColor=none;fillColor=none;" vertex="1" parent="1">
                    <mxGeometry x="2250" y="2660" width="90" height="30" as="geometry"/>
                </mxCell>
                <mxCell id="207" value="" style="edgeStyle=none;orthogonalLoop=1;jettySize=auto;html=1;jumpStyle=arc;" edge="1" parent="1" source="188">
                    <mxGeometry width="100" relative="1" as="geometry">
                        <mxPoint x="1790" y="2490" as="sourcePoint"/>
                        <mxPoint x="2400" y="2640" as="targetPoint"/>
                        <Array as="points">
                            <mxPoint x="1760" y="2620"/>
                            <mxPoint x="1760" y="2480"/>
                            <mxPoint x="2320" y="2480"/>
                            <mxPoint x="2320" y="2640"/>
                        </Array>
                    </mxGeometry>
                </mxCell>
                <mxCell id="208" value="sync" style="shape=trapezoid;perimeter=trapezoidPerimeter;whiteSpace=wrap;html=1;fixedSize=1;direction=south;" vertex="1" parent="1">
                    <mxGeometry x="2400" y="2600" width="40" height="120" as="geometry"/>
                </mxCell>
                <mxCell id="209" value="ScaleRefinement" style="shape=process;whiteSpace=wrap;html=1;backgroundOutline=1;" vertex="1" parent="1">
                    <mxGeometry x="2720" y="2520" width="240" height="360" as="geometry"/>
                </mxCell>
                <mxCell id="210" value="filter" style="rhombus;whiteSpace=wrap;html=1;" vertex="1" parent="1">
                    <mxGeometry x="2600" y="2640" width="80" height="40" as="geometry"/>
                </mxCell>
                <mxCell id="212" value="" style="edgeStyle=none;orthogonalLoop=1;jettySize=auto;html=1;jumpStyle=arc;" edge="1" parent="1" source="208">
                    <mxGeometry width="100" relative="1" as="geometry">
                        <mxPoint x="2426.42" y="2980" as="sourcePoint"/>
                        <mxPoint x="2600" y="2660" as="targetPoint"/>
                        <Array as="points"/>
                    </mxGeometry>
                </mxCell>
                <mxCell id="213" value="" style="edgeStyle=none;orthogonalLoop=1;jettySize=auto;html=1;jumpStyle=arc;" edge="1" parent="1" source="210">
                    <mxGeometry width="100" relative="1" as="geometry">
                        <mxPoint x="2450" y="2680" as="sourcePoint"/>
                        <mxPoint x="2720" y="2660" as="targetPoint"/>
                        <Array as="points"/>
                    </mxGeometry>
                </mxCell>
                <mxCell id="214" value="" style="edgeStyle=none;orthogonalLoop=1;jettySize=auto;html=1;jumpStyle=arc;entryX=0.5;entryY=1;entryDx=0;entryDy=0;" edge="1" parent="1" target="215">
                    <mxGeometry width="100" relative="1" as="geometry">
                        <mxPoint x="2520" y="2660" as="sourcePoint"/>
                        <mxPoint x="2840" y="1720" as="targetPoint"/>
                        <Array as="points">
                            <mxPoint x="2560" y="2660"/>
                            <mxPoint x="2560" y="1720"/>
                        </Array>
                    </mxGeometry>
                </mxCell>
                <mxCell id="215" value="or_else" style="shape=trapezoid;perimeter=trapezoidPerimeter;whiteSpace=wrap;html=1;fixedSize=1;direction=south;" vertex="1" parent="1">
                    <mxGeometry x="3040" y="1640" width="80" height="160" as="geometry"/>
                </mxCell>
                <mxCell id="216" value="c_isBadIMU" style="text;html=1;align=center;verticalAlign=middle;resizable=0;points=[];autosize=1;strokeColor=none;fillColor=none;" vertex="1" parent="1">
                    <mxGeometry x="3218" y="2260" width="90" height="30" as="geometry"/>
                </mxCell>
                <mxCell id="217" value="" style="edgeStyle=none;orthogonalLoop=1;jettySize=auto;html=1;jumpStyle=arc;" edge="1" parent="1" source="215">
                    <mxGeometry width="100" relative="1" as="geometry">
                        <mxPoint x="2970.84" y="1750" as="sourcePoint"/>
                        <mxPoint x="3190" y="1720" as="targetPoint"/>
                        <Array as="points"/>
                    </mxGeometry>
                </mxCell>
                <mxCell id="218" value="s_insertKFtoLC" style="text;html=1;align=center;verticalAlign=middle;resizable=0;points=[];autosize=1;strokeColor=none;fillColor=none;" vertex="1" parent="1">
                    <mxGeometry x="3200" y="1700" width="110" height="30" as="geometry"/>
                </mxCell>
                <mxCell id="219" value="c_isLMStopped" style="text;html=1;align=center;verticalAlign=middle;resizable=0;points=[];autosize=1;strokeColor=none;fillColor=none;" vertex="1" parent="1">
                    <mxGeometry x="3205" y="825" width="110" height="30" as="geometry"/>
                </mxCell>
                <mxCell id="221" value="" style="edgeStyle=none;orthogonalLoop=1;jettySize=auto;html=1;endArrow=diamondThin;endFill=0;endSize=12;jumpStyle=arc;" edge="1" parent="1">
                    <mxGeometry width="100" relative="1" as="geometry">
                        <mxPoint x="1560" y="1120" as="sourcePoint"/>
                        <mxPoint x="3203.0000813802085" y="1120" as="targetPoint"/>
                        <Array as="points"/>
                    </mxGeometry>
                </mxCell>
                <mxCell id="222" value="c_keyFramesInQueue" style="text;html=1;align=center;verticalAlign=middle;resizable=0;points=[];autosize=1;strokeColor=none;fillColor=none;" vertex="1" parent="1">
                    <mxGeometry x="3205" y="1105" width="140" height="30" as="geometry"/>
                </mxCell>
                <mxCell id="224" value="" style="edgeStyle=none;orthogonalLoop=1;jettySize=auto;html=1;exitX=1.018;exitY=0.398;exitDx=0;exitDy=0;exitPerimeter=0;jumpStyle=arc;entryX=0.75;entryY=1;entryDx=0;entryDy=0;" edge="1" parent="1" source="209" target="215">
                    <mxGeometry width="100" relative="1" as="geometry">
                        <mxPoint x="3150.0000000000005" y="2590" as="sourcePoint"/>
                        <mxPoint x="3339.16" y="2591.76" as="targetPoint"/>
                        <Array as="points">
                            <mxPoint x="3000" y="2663"/>
                            <mxPoint x="3000" y="1760"/>
                        </Array>
                    </mxGeometry>
                </mxCell>
            </root>
        </mxGraphModel>
    </diagram>
</mxfile>